<svg width="50" height="49" viewBox="0 0 50 49" fill="none" xmlns="http://www.w3.org/2000/svg">
<path d="M0.5 0.5H42C46.1421 0.5 49.5 3.85786 49.5 8V48.5H10C4.75329 48.5 0.5 44.2467 0.5 39V0.5Z" fill="#FFFEFE" stroke="#CCD3DA"/>
<path fill-rule="evenodd" clip-rule="evenodd" d="M30 23.5556C30 23.2518 29.7167 23 29.3749 23H20.6251C20.2833 23 20 23.2518 20 23.5556C20 23.7033 20.0682 23.8424 20.1853 23.9465L24.5602 27.8352C24.6774 27.9394 24.8339 28 25 28C25.1661 28 25.3217 27.9394 25.4389 27.8352L29.8138 23.9465C29.9309 23.8424 30 23.7033 30 23.5556Z" fill="#838484"/>
</svg>
