<svg width="20" height="20" viewBox="0 0 20 20" fill="none" xmlns="http://www.w3.org/2000/svg">
<g id="Office">
<path id="Vector" d="M9.99999 10.8438C12.4701 10.8442 14.8999 10.2173 17.0615 9.02188L17.0938 9.00404V8.96719V5.625C17.0938 5.56698 17.0707 5.51134 17.0297 5.47032C16.9887 5.4293 16.933 5.40625 16.875 5.40625H3.125C3.06698 5.40625 3.01134 5.4293 2.97032 5.47032C2.9293 5.51134 2.90625 5.56698 2.90625 5.625V8.96797V9.00484L2.93852 9.02267C5.10031 10.2175 7.52998 10.8441 9.99999 10.8438ZM9.99999 10.8438L10 10.7812M9.99999 10.8438L10 10.7812M10 10.7812C7.54057 10.7816 5.12128 10.1577 2.96875 8.96797V5.625C2.96875 5.58356 2.98521 5.54382 3.01451 5.51451C3.04382 5.48521 3.08356 5.46875 3.125 5.46875H16.875C16.9164 5.46875 16.9562 5.48521 16.9855 5.51451C17.0148 5.54382 17.0312 5.58356 17.0312 5.625V8.96719C14.8789 10.1575 12.4595 10.7817 10 10.7812ZM6.40625 4.59375H6.46875V4.53125V3.75C6.46875 3.31074 6.64325 2.88946 6.95385 2.57885C7.26446 2.26825 7.68574 2.09375 8.125 2.09375H11.875C12.3143 2.09375 12.7355 2.26825 13.0461 2.57885C13.3568 2.88946 13.5312 3.31074 13.5312 3.75V4.53125V4.59375H13.5938H16.875C17.1485 4.59375 17.4108 4.7024 17.6042 4.8958C17.7976 5.08919 17.9062 5.3515 17.9062 5.625V15.625C17.9062 15.8985 17.7976 16.1608 17.6042 16.3542C17.4108 16.5476 17.1485 16.6562 16.875 16.6562H3.125C2.8515 16.6562 2.58919 16.5476 2.3958 16.3542C2.2024 16.1608 2.09375 15.8985 2.09375 15.625V5.625C2.09375 5.3515 2.2024 5.08919 2.3958 4.8958C2.58919 4.7024 2.8515 4.59375 3.125 4.59375H6.40625ZM7.28125 4.53125V4.59375H7.34375H12.6562H12.7188V4.53125V3.75C12.7188 3.52622 12.6299 3.31161 12.4716 3.15338C12.3134 2.99514 12.0988 2.90625 11.875 2.90625H8.125C7.90122 2.90625 7.68661 2.99514 7.52838 3.15338C7.37014 3.31161 7.28125 3.52622 7.28125 3.75V4.53125ZM17.0938 10.0289V9.92687L17.0029 9.97323C14.8342 11.0793 12.4344 11.6561 10 11.6562C7.5656 11.6565 5.16579 11.08 2.99715 9.97401L2.90625 9.92765V10.0297V15.625C2.90625 15.683 2.9293 15.7387 2.97032 15.7797C3.01134 15.8207 3.06698 15.8438 3.125 15.8438H16.875C16.933 15.8438 16.9887 15.8207 17.0297 15.7797C17.0707 15.7387 17.0938 15.683 17.0938 15.625V10.0289ZM8.34375 8.75C8.34375 8.64226 8.38655 8.53892 8.46274 8.46274C8.53892 8.38655 8.64226 8.34375 8.75 8.34375H11.25C11.3577 8.34375 11.4611 8.38655 11.5373 8.46274C11.6134 8.53892 11.6562 8.64226 11.6562 8.75C11.6562 8.85774 11.6134 8.96108 11.5373 9.03726C11.4611 9.11345 11.3577 9.15625 11.25 9.15625H8.75C8.64226 9.15625 8.53892 9.11345 8.46274 9.03726C8.38655 8.96108 8.34375 8.85774 8.34375 8.75Z" fill="#637DAD" stroke="#637DAD" stroke-width="0.125"/>
</g>
</svg>
