<svg width="20" height="20" viewBox="0 0 20 20" fill="none" xmlns="http://www.w3.org/2000/svg">
<path d="M18.125 5.15625H16.0938V4.375C16.0938 4.08492 15.9785 3.80672 15.7734 3.6016C15.5683 3.39648 15.2901 3.28125 15 3.28125H5C4.70992 3.28125 4.43172 3.39648 4.2266 3.6016C4.02148 3.80672 3.90625 4.08492 3.90625 4.375V5.15625H1.875C1.58492 5.15625 1.30672 5.27148 1.1016 5.4766C0.896484 5.68172 0.78125 5.95992 0.78125 6.25V7.5C0.78125 8.28736 1.09403 9.04247 1.65078 9.59922C2.20753 10.156 2.96264 10.4687 3.75 10.4688H4.15156C4.5006 11.6547 5.20212 12.7065 6.16298 13.4845C7.12383 14.2624 8.29858 14.7296 9.53125 14.8242V17.0312H7.5C7.37568 17.0312 7.25645 17.0806 7.16854 17.1685C7.08064 17.2565 7.03125 17.3757 7.03125 17.5C7.03125 17.6243 7.08064 17.7435 7.16854 17.8315C7.25645 17.9194 7.37568 17.9688 7.5 17.9688H12.5C12.6243 17.9688 12.7435 17.9194 12.8315 17.8315C12.9194 17.7435 12.9688 17.6243 12.9688 17.5C12.9688 17.3757 12.9194 17.2565 12.8315 17.1685C12.7435 17.0806 12.6243 17.0312 12.5 17.0312H10.4688V14.8242C13.0031 14.6273 15.1117 12.8477 15.8297 10.4688H16.25C17.0374 10.4688 17.7925 10.156 18.3492 9.59922C18.906 9.04247 19.2188 8.28736 19.2188 7.5V6.25C19.2188 5.95992 19.1035 5.68172 18.8984 5.4766C18.6933 5.27148 18.4151 5.15625 18.125 5.15625ZM3.75 9.53125C3.21128 9.53125 2.69462 9.31724 2.31369 8.93631C1.93276 8.55538 1.71875 8.03872 1.71875 7.5V6.25C1.71875 6.20856 1.73521 6.16882 1.76451 6.13951C1.79382 6.11021 1.83356 6.09375 1.875 6.09375H3.90625V8.75C3.90701 9.01122 3.92397 9.27213 3.95703 9.53125H3.75ZM10.0391 13.9062C9.35865 13.9114 8.68395 13.7818 8.05385 13.525C7.42375 13.2682 6.85071 12.8892 6.36777 12.4099C5.88482 11.9306 5.50151 11.3604 5.23995 10.7323C4.97838 10.1041 4.84373 9.43043 4.84375 8.75V4.375C4.84375 4.33356 4.86021 4.29382 4.88951 4.26451C4.91882 4.23521 4.95856 4.21875 5 4.21875H15C15.0414 4.21875 15.0812 4.23521 15.1105 4.26451C15.1398 4.29382 15.1562 4.33356 15.1562 4.375V8.67969C15.1562 11.5406 12.8609 13.8852 10.0391 13.9062ZM18.2812 7.5C18.2812 8.03872 18.0672 8.55538 17.6863 8.93631C17.3054 9.31724 16.7887 9.53125 16.25 9.53125H16.0336C16.0734 9.24914 16.0935 8.96459 16.0938 8.67969V6.09375H18.125C18.1664 6.09375 18.2062 6.11021 18.2355 6.13951C18.2648 6.16882 18.2812 6.20856 18.2812 6.25V7.5Z" fill="#637DAD"/>
</svg>
