<svg width="20" height="20" viewBox="0 0 20 20" fill="none" xmlns="http://www.w3.org/2000/svg">
<path d="M14.0133 14.2192H8.56249C8.49079 14.7641 8.29506 15.2853 7.99035 15.7427C7.68565 16.2001 7.28008 16.5816 6.80486 16.8577C6.32963 17.1338 5.7974 17.2972 5.24911 17.3354C4.70082 17.3736 4.15108 17.2855 3.64217 17.0779C3.13326 16.8704 2.67874 16.5488 2.31357 16.138C1.9484 15.7273 1.68232 15.2382 1.53578 14.7085C1.38925 14.1788 1.36616 13.6225 1.46831 13.0825C1.57046 12.5424 1.79511 12.033 2.12499 11.5934C2.16198 11.5441 2.2083 11.5027 2.26132 11.4713C2.31433 11.44 2.373 11.4194 2.43398 11.4107C2.49495 11.402 2.55704 11.4055 2.61669 11.4208C2.67634 11.4361 2.73239 11.463 2.78163 11.5C2.83088 11.537 2.87236 11.5833 2.9037 11.6363C2.93504 11.6894 2.95564 11.748 2.96431 11.809C2.97298 11.87 2.96955 11.9321 2.95422 11.9917C2.9389 12.0514 2.91198 12.1074 2.87499 12.1567C2.52852 12.6156 2.34192 13.1754 2.34374 13.7504C2.34374 14.4549 2.6236 15.1305 3.12174 15.6287C3.61988 16.1268 4.29551 16.4067 4.99999 16.4067C5.70447 16.4067 6.3801 16.1268 6.87824 15.6287C7.37639 15.1305 7.65624 14.4549 7.65624 13.7504C7.65624 13.6261 7.70563 13.5069 7.79353 13.419C7.88144 13.331 8.00067 13.2817 8.12499 13.2817H14.0133C14.1197 13.0573 14.2993 12.8758 14.5226 12.7671C14.7458 12.6583 14.9995 12.6288 15.2417 12.6834C15.484 12.7379 15.7005 12.8733 15.8556 13.0672C16.0107 13.2611 16.0952 13.5021 16.0952 13.7504C16.0952 13.9987 16.0107 14.2397 15.8556 14.4336C15.7005 14.6275 15.484 14.7629 15.2417 14.8174C14.9995 14.872 14.7458 14.8425 14.5226 14.7337C14.2993 14.625 14.1197 14.4435 14.0133 14.2192ZM4.99999 14.8442C5.19671 14.844 5.38972 14.7907 5.55871 14.69C5.7277 14.5893 5.86641 14.4449 5.96022 14.272C6.05403 14.0991 6.09947 13.9041 6.09176 13.7075C6.08405 13.511 6.02347 13.3201 5.9164 13.1551L8.76171 8.53166C8.7938 8.47909 8.81521 8.42071 8.82472 8.35986C8.83424 8.299 8.83166 8.23687 8.81715 8.17702C8.80264 8.11716 8.77648 8.06075 8.74015 8.01101C8.70383 7.96127 8.65806 7.91917 8.60546 7.88713C8.25092 7.66837 7.9528 7.36928 7.73519 7.01403C7.51758 6.65877 7.38659 6.25732 7.35279 5.84209C7.31899 5.42686 7.38333 5.0095 7.54061 4.62373C7.6979 4.23796 7.94371 3.89459 8.25821 3.62136C8.5727 3.34814 8.94705 3.15272 9.35102 3.05089C9.75498 2.94906 10.1772 2.94368 10.5837 3.03517C10.9901 3.12667 11.3693 3.31249 11.6907 3.5776C12.012 3.84272 12.2665 4.17971 12.4336 4.56135C12.4573 4.61898 12.4924 4.67129 12.5366 4.71523C12.5808 4.75916 12.6333 4.79384 12.6911 4.81722C12.7489 4.84061 12.8108 4.85223 12.8731 4.85142C12.9354 4.8506 12.997 4.83736 13.0541 4.81248C13.1113 4.78759 13.1629 4.75156 13.2059 4.70648C13.249 4.6614 13.2826 4.60819 13.3049 4.54996C13.3271 4.49173 13.3375 4.42965 13.3355 4.36735C13.3334 4.30505 13.319 4.24378 13.293 4.18713C13.0753 3.68825 12.7472 3.24532 12.3334 2.89176C11.9196 2.5382 11.4309 2.28325 10.9042 2.14615C10.3775 2.00905 9.8265 1.99339 9.29283 2.10033C8.75916 2.20728 8.25676 2.43404 7.82353 2.76351C7.39031 3.09298 7.03757 3.51656 6.79196 4.00226C6.54634 4.48797 6.41425 5.02312 6.40567 5.56732C6.39708 6.11153 6.51221 6.65058 6.74239 7.1438C6.97256 7.63701 7.31175 8.0715 7.73437 8.41447L5.11874 12.6629C5.07968 12.659 5.04062 12.6567 4.99999 12.6567C4.70991 12.6567 4.43171 12.7719 4.22659 12.977C4.02148 13.1821 3.90624 13.4603 3.90624 13.7504C3.90624 14.0405 4.02148 14.3187 4.22659 14.5238C4.43171 14.7289 4.70991 14.8442 4.99999 14.8442ZM15 10.1567C14.4939 10.1562 13.9934 10.2627 13.5312 10.4692L10.9164 6.21994C11.0486 6.01578 11.109 5.77337 11.088 5.53104C11.067 5.28872 10.9659 5.0603 10.8005 4.88191C10.6352 4.70351 10.4151 4.58533 10.175 4.54603C9.935 4.50673 9.68871 4.54857 9.47511 4.66493C9.26152 4.78129 9.0928 4.96553 8.99564 5.18852C8.89848 5.4115 8.87842 5.66051 8.93864 5.89618C8.99885 6.13184 9.1359 6.34071 9.32812 6.48976C9.52034 6.63881 9.75676 6.71953 9.99999 6.71916C10.0397 6.71918 10.0793 6.71683 10.1187 6.71213L12.9625 11.3348C13.0282 11.4405 13.1329 11.516 13.2539 11.5449C13.3748 11.5736 13.502 11.5531 13.6078 11.4879C13.9575 11.2728 14.3523 11.1417 14.7611 11.1049C15.17 11.068 15.5819 11.1265 15.9644 11.2756C16.3469 11.4247 16.6896 11.6605 16.9656 11.9644C17.2417 12.2683 17.4435 12.632 17.5553 13.027C17.6671 13.422 17.6859 13.8376 17.61 14.2411C17.5342 14.6445 17.3659 15.0249 17.1183 15.3524C16.8707 15.6799 16.5505 15.9455 16.183 16.1284C15.8155 16.3113 15.4105 16.4066 15 16.4067C14.8757 16.4067 14.7564 16.456 14.6685 16.544C14.5806 16.6319 14.5312 16.7511 14.5312 16.8754C14.5312 16.9997 14.5806 17.119 14.6685 17.2069C14.7564 17.2948 14.8757 17.3442 15 17.3442C15.9531 17.3442 16.8672 16.9655 17.5412 16.2916C18.2151 15.6176 18.5937 14.7035 18.5937 13.7504C18.5937 12.7973 18.2151 11.8832 17.5412 11.2092C16.8672 10.5353 15.9531 10.1567 15 10.1567Z" fill="#637DAD"/>
</svg>
