<svg width="16" height="16" viewBox="0 0 16 16" fill="none" xmlns="http://www.w3.org/2000/svg">
<path d="M13.265 10.2647C13.1947 10.3349 13.0994 10.3743 13 10.3743C12.9006 10.3743 12.8053 10.3349 12.735 10.2647L8 5.53029L3.265 10.2647C3.19391 10.3309 3.09989 10.367 3.00274 10.3653C2.90559 10.3635 2.8129 10.3242 2.74419 10.2555C2.67548 10.1868 2.63613 10.0941 2.63441 9.99693C2.6327 9.89978 2.66876 9.80576 2.735 9.73467L7.735 4.73467C7.80531 4.66444 7.90062 4.625 8 4.625C8.09937 4.625 8.19469 4.66444 8.265 4.73467L13.265 9.73467C13.3352 9.80498 13.3747 9.90029 13.3747 9.99967C13.3747 10.099 13.3352 10.1944 13.265 10.2647Z" fill="#1B2438"/>
</svg>
