<svg width="16" height="16" viewBox="0 0 16 16" fill="none" xmlns="http://www.w3.org/2000/svg">
<path d="M13.265 6.26541L8.265 11.2654C8.19469 11.3356 8.09938 11.3751 8 11.3751C7.90062 11.3751 7.80531 11.3356 7.735 11.2654L2.735 6.26541C2.66876 6.19432 2.6327 6.1003 2.63441 6.00315C2.63613 5.906 2.67548 5.81331 2.74419 5.7446C2.8129 5.67589 2.90559 5.63654 3.00274 5.63482C3.09989 5.63311 3.19391 5.66917 3.265 5.73541L8 10.4698L12.735 5.73541C12.8061 5.66917 12.9001 5.63311 12.9973 5.63482C13.0944 5.63654 13.1871 5.67589 13.2558 5.7446C13.3245 5.81331 13.3639 5.906 13.3656 6.00315C13.3673 6.1003 13.3312 6.19432 13.265 6.26541Z" fill="#5E626B"/>
</svg>
